<svg xmlns="http://www.w3.org/2000/svg" xmlns:xlink="http://www.w3.org/1999/xlink" width="350" height="1163" viewBox="0 0 350 1163"><defs><clipPath id="a"><rect width="350" height="1163" transform="translate(7236 -466)" fill="#fff"/></clipPath><linearGradient id="b" x1="0.5" x2="0.5" y2="1" gradientUnits="objectBoundingBox"><stop offset="0" stop-color="#ff930a"/><stop offset="1" stop-color="#f6961d" stop-opacity="0"/></linearGradient><linearGradient id="f" x1="-11.332" y1="-351.138" x2="-11.332" y2="-351.263" gradientUnits="objectBoundingBox"><stop offset="0" stop-color="#f6961d"/><stop offset="1" stop-color="#f6961d" stop-opacity="0"/></linearGradient><linearGradient id="g" x1="-10.332" y1="-351.138" x2="-10.332" y2="-351.263" xlink:href="#f"/></defs><g transform="translate(-7236 466)" clip-path="url(#a)"><g transform="translate(-103 -3)"><text transform="translate(7489.11 -412)" fill="#fff" font-size="22" font-family="Montserrat-SemiBold, Montserrat" font-weight="600"><tspan x="0" y="0">2019</tspan></text><text transform="translate(7470.67 -392.228)" fill="#fff" font-size="15" font-family="Montserrat-SemiBold, Montserrat" font-weight="600"><tspan x="0" y="0">Completed</tspan></text><rect width="4.831" height="76.082" transform="translate(7511.836 -328.538)" fill="url(#b)"/><ellipse cx="21" cy="20.5" rx="21" ry="20.5" transform="translate(7493.251 -369.144)" fill="none"/><ellipse cx="19" cy="19.5" rx="19" ry="19.5" transform="translate(7495.251 -368.144)" fill="none" stroke="#f6961d" stroke-width="2"/><circle cx="12" cy="12" r="12" transform="translate(7502.251 -360.144)" fill="#f6961d"/><text transform="translate(7489.11 -182.962)" fill="#fff" font-size="22" font-family="Montserrat-SemiBold, Montserrat" font-weight="600"><tspan x="0" y="0">2020</tspan></text><text transform="translate(7470.67 -163.19)" fill="#fff" font-size="15" font-family="Montserrat-SemiBold, Montserrat" font-weight="600"><tspan x="0" y="0">Completed</tspan></text><rect width="4.831" height="76.082" transform="translate(7511.836 -99.446)" fill="url(#b)"/><circle cx="20.53" cy="20.53" r="20.53" transform="translate(7493.721 -139.902)" fill="none"/><circle cx="19.322" cy="19.322" r="19.322" transform="translate(7494.929 -138.695)" fill="none" stroke="#f6961d" stroke-width="2"/><circle cx="12.077" cy="12.077" r="12.077" transform="translate(7502.175 -131.449)" fill="#f6961d"/><text transform="translate(7489.11 26.573)" fill="#fff" font-size="22" font-family="Montserrat-SemiBold, Montserrat" font-weight="600"><tspan x="0" y="0">2021</tspan></text><text transform="translate(7470.67 46.345)" fill="#fff" font-size="15" font-family="Montserrat-SemiBold, Montserrat" font-weight="600"><tspan x="0" y="0">Completed</tspan></text><rect width="4.831" height="76.082" transform="translate(7511.836 110.082)" fill="url(#b)"/><circle cx="20.53" cy="20.53" r="20.53" transform="translate(7493.721 69.625)" fill="none"/><circle cx="19.322" cy="19.322" r="19.322" transform="translate(7494.929 70.833)" fill="none" stroke="#f6961d" stroke-width="2"/><circle cx="12.077" cy="12.077" r="12.077" transform="translate(7502.175 78.079)" fill="#f6961d"/><text transform="translate(7489.11 258.958)" fill="#fff" font-size="22" font-family="Montserrat-SemiBold, Montserrat" font-weight="600"><tspan x="0" y="0">2021</tspan></text><text transform="translate(7470.67 278.729)" fill="#fff" font-size="15" font-family="Montserrat-SemiBold, Montserrat" font-weight="600"><tspan x="0" y="0">Completed</tspan></text><rect width="4.831" height="76.082" transform="translate(7511.836 342.434)" fill="url(#b)"/><circle cx="20.53" cy="20.53" r="20.53" transform="translate(7493.721 301.978)" fill="none"/><circle cx="19.322" cy="19.322" r="19.322" transform="translate(7494.929 303.186)" fill="none" stroke="#f6961d" stroke-width="2"/><circle cx="12.077" cy="12.077" r="12.077" transform="translate(7502.175 310.431)" fill="#f6961d"/><text transform="translate(7484.722 505.405)" fill="#fff" font-size="15" font-family="Montserrat-SemiBold, Montserrat" font-weight="600"><tspan x="0" y="0">January</tspan></text><text transform="translate(7480.49 538.012)" fill="#fff" font-size="15" font-family="Montserrat-SemiBold, Montserrat" font-weight="600"><tspan x="0" y="0">February</tspan></text><text transform="translate(7491.221 570.619)" fill="#fff" font-size="15" font-family="Montserrat-SemiBold, Montserrat" font-weight="600"><tspan x="0" y="0">March</tspan></text><text transform="translate(7497.658 603.225)" fill="#fff" font-size="15" font-family="Montserrat-SemiBold, Montserrat" font-weight="600"><tspan x="0" y="0">April</tspan></text><text transform="translate(7489.109 258.958)" fill="#fff" font-size="22" font-family="Montserrat-SemiBold, Montserrat" font-weight="600"><tspan x="0" y="0">2021</tspan></text><text transform="translate(7489.109 476.335)" fill="#fff" font-size="22" font-family="Montserrat-SemiBold, Montserrat" font-weight="600"><tspan x="0" y="0">2022</tspan></text><g transform="translate(7493.721 629.252)"><g transform="translate(0)"><circle cx="20.53" cy="20.53" r="20.53" transform="translate(0)" fill="none"/><circle cx="19.322" cy="19.322" r="19.322" transform="translate(1.208 1.208)" fill="none" stroke="#f6961d" stroke-width="2"/></g><circle cx="12.077" cy="12.077" r="12.077" transform="translate(8.454 8.453)" fill="#f6961d"/></g><g transform="translate(7443 647.367)"><rect width="71.252" height="4.831" transform="translate(71.252)" fill="url(#f)"/><rect width="71.252" height="4.831" fill="url(#g)"/></g></g></g></svg>